<svg width="349" height="643" viewBox="0 0 349 643" fill="none" xmlns="http://www.w3.org/2000/svg">
<path d="M172.952 501.5C162.952 482.5 162.952 459.833 162.952 450L250.452 432C260.452 455.5 254.952 445.5 262.452 461.5C269.952 477.5 292.952 486.5 311.952 499C330.952 511.5 345.952 537 345.452 565C344.952 593 332.452 628.5 313.952 636C295.452 643.5 276.452 640 252.452 619C228.452 598 230.952 576.5 223.452 560C215.952 543.5 214.903 534.19 196.952 523.5C181 514 177.487 510.115 172.952 501.5Z" fill="white" stroke="white" stroke-width="6"/>
<path d="M13.908 128.583C6.95249 159.545 -20.093 215.083 50.4079 339.583C66.7832 368.5 92.4527 403.325 114.408 421.083C125.089 429.722 148.152 448.2 166.952 453C190.452 459 199.452 461 220.952 453C242.452 445 265.452 427.5 271.952 417C277.152 408.6 284.008 382.479 285.952 378.5C307.452 334.5 307.908 311.583 303.408 254.583C298.908 197.583 302.908 180.583 276.408 140.083C249.908 99.5826 253.408 48.5826 194.408 16.5826C135.408 -15.4174 80.9079 17.5826 65.9079 29.5826C50.9079 41.5826 29.4083 59.5826 13.908 128.583Z" fill="white" stroke="white" stroke-width="6" stroke-linecap="round"/>
<path d="M257.5 440.556C247.417 447.177 235.311 451.961 218.452 456.5C194.354 462.988 174.793 461.28 160.249 457.5" stroke="black" stroke-width="8" stroke-linecap="round"/>
<path d="M135.952 133C121.152 145.8 96.7858 160.667 86.4524 166.5C83.4524 173.5 86.4524 188.5 104.952 196C123.452 203.5 143.452 209 170.452 205C197.452 201 212.952 189.5 218.952 179C224.952 168.5 231.452 145 218.952 145.5C206.452 146 182.452 130.5 176.952 129.5C171.452 128.5 154.452 117 135.952 133Z" fill="black" stroke="black" stroke-width="6"/>
<circle cx="129.952" cy="158" r="4" fill="white"/>
<circle cx="184.952" cy="150" r="4" fill="white"/>
<circle cx="79.9524" cy="119" r="9" fill="black"/>
<circle cx="220.952" cy="98" r="9" fill="black"/>
<path d="M263.667 128.649C263.975 131.933 261.023 135.426 256.308 135.867C251.593 136.309 248.044 133.425 247.737 130.142C247.429 126.859 250.381 123.366 255.095 122.924C259.81 122.482 263.359 125.366 263.667 128.649Z" stroke="black" stroke-width="4"/>
<path d="M31.757 165.757C31.1157 168.606 27.3739 170.92 22.6347 169.854C17.8955 168.787 15.5063 165.092 16.1476 162.243C16.7889 159.394 20.5307 157.08 25.2699 158.146C30.0092 159.213 32.3983 162.908 31.757 165.757Z" stroke="black" stroke-width="4"/>
<path d="M59.4524 251C60.7857 252.5 64.6524 255.7 69.4524 256.5C75.4524 257.5 97.1465 256.485 103.452 256C109.952 255.5 116.452 255.5 120.452 257.5C124.452 259.5 125.952 260.5 127.452 263.5C128.952 266.5 129.952 269.5 127.452 274C125.452 277.6 115.619 281.5 110.952 283C107.452 284.125 126.852 282.6 128.452 291C130.052 299.4 112.452 296 117.952 297.5C122.286 298.333 130.852 301.8 130.452 309C130.052 316.2 117.952 317.667 111.952 317.5C83.4524 316.708 61.4524 304 61.4524 304C58.9524 303 53.8524 300 53.4524 296" stroke="black" stroke-width="6" stroke-linecap="round"/>
<path d="M249.952 227.5C251.119 231.667 251.452 237.6 247.452 240C236.619 247.667 219.516 259.303 218.952 265.5C218.452 271 227.452 275 233.452 274C239.452 273 239.952 274 237.452 277C234.952 280 226.452 285.5 229.952 286.5C233.452 287.5 241.452 282 243.452 284C245.452 286 238.952 293 235.452 296C231.952 299 232.452 301.5 233.952 303C235.452 304.5 238.952 309.5 245.952 311C252.952 312.5 260.248 310.96 267.952 306.5C277.452 301 278.952 302.5 295.452 278" stroke="black" stroke-width="6" stroke-linecap="round"/>
<path d="M191.64 385.221C199.436 416.455 181.539 437.057 169.221 439.239C164.266 439.913 160.175 440.164 149.952 435.5C143.017 432.336 131.452 419.5 127.68 412.094C123.138 403.177 121.602 400.81 116.313 387.906C111.024 375.001 117.219 368.607 122.038 366.942C126.857 365.277 131.721 367.642 136.066 373.611C140.41 379.579 140.073 377.102 144.286 370.978C148.498 364.854 151.357 371.025 155.297 374.021C159.237 377.017 161.491 367.627 162.933 363.394C164.375 359.16 167.952 348.813 172.012 348.533C174.452 348.365 181.65 345.203 191.64 385.221Z" stroke="black" stroke-width="6"/>
<path d="M255.824 419.051C278.104 403.902 279.952 362.5 273.452 349.5C266.87 336.336 263.635 351.263 259.184 356.282C254.734 361.301 252.448 360.171 249.361 356.238C246.274 352.305 246.791 350.373 241.245 355.617C235.699 360.86 231.293 356.056 230.62 352.77C229.948 349.484 227.542 341.074 218.969 346.024C210.469 350.932 209.785 358.951 208.596 372.898L208.565 373.26C207.357 387.43 208.313 395.451 210.46 404.826C212.607 414.201 227.974 437.988 255.824 419.051Z" stroke="black" stroke-width="6"/>
</svg>
